# xmcd CD database file
#
# Track frame offsets:
#	150
#	14838
#	31294
#	49404
#	76717
#	96198
#	113387
#	126767
#	143001
#	158230
#	175804
#
# Disc length: 2714 seconds
#
# Revision: 0
# Processed by: cddbd v1.5.2PL0 Copyright (c) Steve Scherf et al.
# Submitted via: CDex 1.70beta2
#
DISCID=850a980b
DTITLE=Various Artist - Exitos Solamente 5 - Disc 2
DYEAR=2004
DGENRE=Salsa
TTITLE0=Erick León y La Jungla-El Trago
TTITLE1=Los Telez-Muévete
TTITLE2=Calle 8-Esa chica
TTITLE3=Kairo's-Cumbia Egipcia
TTITLE4=Kalúa-Dos locos
TTITLE5=Karla Jireth-Cada vez
TTITLE6=Atendado Internacional-La Gallinita 2
TTITLE7=Yaguaré-Vanidosa
TTITLE8=Urubamba-Chicos de mi barrio
TTITLE9=Obsesión Andina-Yo se que es no feliz
TTITLE10=Mix Sonidero 2
EXTD=YEAR: 2004
EXTT0=
EXTT1=
EXTT2=
EXTT3=
EXTT4=
EXTT5=
EXTT6=
EXTT7=
EXTT8=
EXTT9=
EXTT10=
PLAYORDER=
